<svg width="26" height="31" viewBox="0 0 26 31" fill="none" xmlns="http://www.w3.org/2000/svg">
<path d="M15.8694 5.05573L1.43841 12.8257C0.830435 13.153 0.489772 13.9332 0.549268 14.8617C0.608826 15.7903 1.05657 16.68 1.71778 17.1835L6.93989 21.1606L10.9476 15.0696C11.132 14.7894 11.4866 14.8053 11.7397 15.1053C11.9926 15.4052 12.0483 15.8757 11.8638 16.156L7.85614 22.247L11.4411 28.7121C11.8951 29.5308 12.6081 30.0174 13.3019 29.9819C13.997 29.9464 14.5306 29.3948 14.6972 28.546L18.6586 8.36272C18.839 7.44379 18.5647 6.41491 17.9428 5.67757C17.3209 4.94024 16.5264 4.70189 15.8694 5.05573Z" fill="white"/>
</svg>
